# xmcd
#
# Track frame offsets:
#	150
#	15624
#	31999
#	47881
#	64643
#	81237
#	94503
#	110103
#	126982
#	139549
#
# Disc length: 2049 seconds
#
# Revision: 0
# Processed by: cddbd v1.5PL3 Copyright (c) Steve Scherf et al.
# Submitted via: dBpowerAMP V4.0
#
DISCID=8207ff0a
DTITLE=Billy Dean - Certified Hits
DYEAR=2002
DGENRE=Country
TTITLE0=We Just Disagree
TTITLE1=Tryin' To Hide A Fire In The Dark
TTITLE2=Young Man
TTITLE3=That Girl's Been Spyin' On Me
TTITLE4=Only The Wind
TTITLE5=Innocent Bystander
TTITLE6=Only Here For A Little While
TTITLE7=Real Man
TTITLE8=Men Will Be Boys
TTITLE9=Billy The Kid
EXTD=
EXTT0=
EXTT1=
EXTT2=
EXTT3=
EXTT4=
EXTT5=
EXTT6=
EXTT7=
EXTT8=
EXTT9=
PLAYORDER=
